<svg version="1.1" id="Layer_1" xmlns="http://www.w3.org/2000/svg" xmlns:xlink="http://www.w3.org/1999/xlink" x="0px" y="0px"
	 width="100%" viewBox="0 0 1024 1024" enable-background="new 0 0 1024 1024" xml:space="preserve">
<path fill="#C53132" opacity="1.000000" stroke="none" 
	d="
M564.000000,1025.000000 
	C376.000000,1025.000000 188.500000,1025.000000 1.000000,1025.000000 
	C1.000000,683.666687 1.000000,342.333344 1.000000,1.000000 
	C342.333344,1.000000 683.666687,1.000000 1025.000000,1.000000 
	C1025.000000,342.333344 1025.000000,683.666687 1025.000000,1025.000000 
	C871.500000,1025.000000 718.000000,1025.000000 564.000000,1025.000000 
M704.280884,435.512909 
	C697.235291,435.345551 690.189514,435.057739 683.144165,435.066956 
	C680.100159,435.070953 677.056946,435.688721 674.019348,436.961517 
	C674.008728,452.459930 674.011719,467.958374 673.980896,483.456757 
	C673.968506,489.712860 673.681885,490.015015 667.534180,490.023956 
	C650.702515,490.048370 633.870789,490.031860 617.024292,489.088287 
	C617.011902,474.350311 617.033020,459.612152 616.946472,444.874603 
	C616.935181,442.950836 616.370361,441.030304 616.009460,438.433136 
	C615.988770,437.982300 615.968079,437.531433 615.909729,436.491241 
	C615.893494,436.295044 615.877258,436.098877 615.199097,435.467590 
	C608.731323,435.316376 602.262451,435.021301 595.796082,435.067535 
	C591.870667,435.095612 587.949097,435.651276 584.146362,436.655884 
	C584.198914,436.881989 584.251404,437.108124 584.130432,437.116760 
	C584.130432,437.116760 584.364990,436.967072 583.794617,437.611115 
	C583.536377,439.390747 583.054688,441.170166 583.052856,442.950073 
	C583.009399,484.418549 583.002075,525.887085 583.067383,567.355530 
	C583.070374,569.256287 583.811646,571.155823 583.965820,573.065491 
	C583.965820,573.065491 583.942200,572.823181 584.630615,573.317322 
	C594.181396,573.511780 603.733215,573.816040 613.281372,573.727173 
	C614.212524,573.718506 615.121094,571.285828 616.481934,569.288086 
	C616.649475,567.317200 616.957336,565.346619 616.962341,563.375305 
	C617.000854,548.260498 616.980530,533.145508 617.918457,518.018677 
	C634.562317,518.013184 651.208557,518.162109 667.848511,517.904968 
	C672.630371,517.831116 674.191101,519.266846 674.102844,524.107788 
	C673.829834,539.082214 674.077026,554.065552 673.945129,569.043823 
	C673.913147,572.671326 675.131226,574.201477 678.849487,574.043701 
	C683.501160,573.846375 688.173767,574.150574 692.826477,573.965332 
	C696.906677,573.802856 700.971863,573.263489 705.045715,573.030029 
	C705.045715,573.030029 704.906799,573.042786 705.375610,572.352417 
	C705.580200,570.723389 705.962219,569.094543 705.963501,567.465393 
	C705.996460,526.100037 705.999817,484.734711 705.954834,443.369415 
	C705.952881,441.587280 705.440186,439.805695 704.955200,437.640106 
	C704.955200,437.640106 704.923279,437.203735 704.957886,436.582458 
	C704.961670,436.375122 704.965454,436.167786 704.280884,435.512909 
M833.022278,573.046936 
	C833.022278,573.046936 832.867676,573.048523 833.354858,572.364441 
	C833.563293,571.068542 833.951965,569.772827 833.953613,568.476624 
	C833.991394,537.865784 834.002930,507.254822 833.947510,476.644012 
	C833.944641,475.050751 833.307495,473.458710 832.905762,471.748383 
	C832.905762,471.748383 833.018066,471.678986 832.436951,471.027679 
	C832.014954,470.775757 831.595398,470.308380 831.170593,470.303558 
	C821.879761,470.198364 812.588318,470.122040 803.296875,470.093536 
	C800.190491,470.084015 800.090820,472.325470 800.092773,474.613190 
	C800.119446,506.274445 800.127380,537.935669 800.217346,569.596741 
	C800.219666,570.424194 801.095093,571.249146 801.768799,572.514465 
	C801.768799,572.514465 801.972229,572.954651 802.122681,573.508057 
	C809.862915,573.672974 817.603088,573.941406 825.343384,573.944397 
	C827.910095,573.945374 830.477112,573.263489 833.022278,573.046936 
M328.003693,573.950378 
	C357.735474,573.963928 387.467316,573.990723 417.199036,573.954712 
	C418.807312,573.952759 420.414948,573.424683 422.727661,572.619629 
	C422.727661,564.694031 422.727661,556.768372 422.727661,548.117188 
	C400.326080,548.117188 378.208191,548.117188 356.171173,548.117188 
	C356.171173,537.597046 356.171173,527.807434 357.086090,517.996582 
	C375.747620,517.978149 394.409180,517.959656 413.668884,518.133484 
	C414.445984,516.805359 415.838196,515.502502 415.894012,514.144775 
	C416.139679,508.166504 415.738617,502.157410 416.082397,496.188873 
	C416.356964,491.421753 414.751648,489.822632 409.896332,489.902893 
	C394.098083,490.164032 378.292786,489.984711 362.490265,490.009430 
	C359.596497,490.013947 357.032532,489.742706 357.035126,485.937042 
	C357.039459,479.616241 357.012360,473.295258 357.051666,466.974701 
	C357.067902,464.362610 358.236694,463.233398 361.088562,463.236053 
	C380.502716,463.254089 399.917175,463.034698 419.331177,463.072144 
	C423.234619,463.079651 424.119904,461.308594 424.035187,457.879944 
	C423.854370,450.565002 423.906830,443.244293 423.207825,435.474030 
	C422.396637,435.322174 421.585571,435.038116 420.774292,435.037445 
	C390.476227,435.013245 360.178162,435.011536 329.880127,435.035400 
	C329.135284,435.035980 328.390686,435.359772 327.645966,435.532776 
	C327.764038,435.629669 327.869049,435.780365 328.002747,435.812714 
	C328.323914,435.890472 328.658569,435.912689 328.965027,436.423523 
	C328.965027,436.423523 328.935760,436.889374 328.251801,437.050415 
	C327.549377,437.059082 326.846924,437.067749 325.522369,436.936798 
	C325.015839,438.449524 324.069641,439.961426 324.066803,441.475098 
	C323.988678,483.378845 323.993408,525.282776 324.049438,567.186584 
	C324.052032,569.112488 324.657654,571.037659 325.419556,573.364746 
	C325.974121,573.548767 326.528687,573.732788 328.003693,573.950378 
M268.925385,463.003204 
	C281.067047,463.005798 293.209259,463.064117 305.349854,462.952301 
	C307.222321,462.935059 309.087555,462.136383 310.920044,461.339233 
	C310.920044,461.339233 311.126556,461.042297 311.320343,460.808746 
	C311.440521,460.498108 311.369049,460.233582 310.877716,459.100372 
	C310.946075,452.071808 311.014465,445.043274 311.501556,437.612000 
	C312.835358,434.072876 309.845276,435.135620 308.524841,435.096954 
	C302.868195,434.931305 297.204193,435.010620 291.542877,435.010498 
	C261.238007,435.009857 230.932556,435.105042 200.628860,434.918091 
	C195.828430,434.888519 193.570709,435.862061 193.972122,441.199493 
	C194.407928,446.994263 194.151886,452.849548 194.025620,458.674744 
	C193.955353,461.916748 194.807114,463.508484 198.537552,463.472961 
	C207.177231,463.390686 215.820435,463.833862 224.463745,463.938873 
	C235.179581,464.069092 233.963669,462.973969 233.980972,473.705536 
	C234.030899,504.676361 233.976379,535.647400 234.057312,566.618103 
	C234.063126,568.840271 234.832336,571.060486 235.929504,573.633972 
	C245.638504,573.467041 255.347519,573.300110 265.473175,572.968811 
	C265.473175,572.968811 265.911499,572.876770 266.459076,573.176025 
	C266.970856,571.667236 267.925903,570.159424 267.929382,568.649475 
	C268.010742,533.434692 267.989014,498.219635 268.925385,463.003204 
M557.876526,550.650330 
	C552.706848,547.339417 547.537231,544.028503 542.051880,540.515320 
	C541.006409,541.241760 539.502197,542.243286 538.043396,543.307068 
	C518.468201,557.581238 490.543457,553.103088 476.570465,533.296143 
	C469.555237,523.351929 468.753174,511.972504 469.913147,500.348083 
	C473.094299,468.468048 502.282379,452.322021 530.120911,465.768097 
	C534.345703,467.808655 538.358154,472.672241 542.221802,472.421631 
	C546.267212,472.159271 549.967957,467.238403 553.906677,464.478394 
	C557.358826,462.059357 560.932068,459.813141 564.831970,457.239716 
	C563.108276,455.748138 562.009644,454.767395 560.879700,453.824188 
	C547.186096,442.393860 531.323914,437.119446 513.583252,436.446320 
	C480.055756,435.174286 451.895233,451.270874 441.797211,483.385284 
	C433.051483,511.199005 437.949860,536.749023 459.043823,557.328186 
	C478.536194,576.344849 503.045135,579.283997 528.795837,574.367004 
	C542.649719,571.721680 554.467285,564.884705 564.826782,554.720093 
	C562.432373,553.312256 560.469604,552.158203 557.876526,550.650330 
M813.956909,429.105469 
	C808.643616,430.371338 803.849243,432.445679 801.074158,437.559967 
	C797.533813,444.084534 798.458374,451.999023 803.298340,456.904694 
	C808.683533,462.362976 818.261475,463.746368 825.463013,460.106018 
	C835.961914,454.798950 838.030945,441.568359 829.486206,433.945312 
	C825.333740,430.240692 820.434875,428.485901 813.956909,429.105469 
M754.500000,504.026062 
	C747.187561,504.026062 739.873657,504.109344 732.563293,503.986725 
	C729.460144,503.934692 727.978760,504.932312 728.050964,508.260986 
	C728.198792,515.071655 728.216736,521.890442 728.055786,528.700378 
	C727.976196,532.067810 729.480774,532.966919 732.563232,532.947205 
	C747.187500,532.853638 761.813354,532.810242 776.436768,532.950439 
	C780.032959,532.984985 781.042114,531.521912 780.956909,528.201416 
	C780.790588,521.723938 780.719421,515.233948 780.939819,508.760376 
	C781.069397,504.955200 779.518555,503.865509 775.939880,503.969879 
	C769.131775,504.168365 762.313843,504.027069 754.500000,504.026062 
z"/>
<path fill="#FEFBFB" opacity="1.000000" stroke="none" 
	d="
M704.923279,437.203735 
	C704.923279,437.203735 704.955200,437.640106 704.986694,438.294739 
	C704.986694,441.109009 704.928223,443.268677 704.927673,445.428314 
	C704.916687,487.966461 704.912415,530.504639 704.906799,573.042786 
	C704.906799,573.042786 705.045715,573.030029 704.569824,572.980164 
	C694.500244,572.930298 684.906677,572.930298 674.855713,572.930298 
	C674.855713,554.017273 674.855713,535.628296 674.855713,517.270264 
	C654.665649,517.270264 634.943848,517.270264 614.787476,517.270264 
	C614.787476,535.972839 614.787476,554.356262 614.787476,572.823181 
	C604.214417,572.823181 594.078308,572.823181 583.942200,572.823181 
	C583.942200,572.823181 583.965820,573.065491 584.072205,572.581055 
	C584.224792,568.274658 584.308838,564.452698 584.311218,560.630798 
	C584.336487,519.409546 584.348999,478.188324 584.364990,436.967072 
	C584.364990,436.967072 584.130432,437.116760 584.655396,437.121368 
	C595.079285,437.097870 604.978271,437.069763 614.938232,437.504120 
	C614.999207,455.696411 614.999207,473.426208 614.999207,490.866852 
	C635.401672,490.866852 655.110962,490.866852 675.018433,490.866852 
	C675.018433,473.932404 674.971008,457.463043 675.103333,440.995087 
	C675.114563,439.591064 676.323242,438.196625 677.437622,436.891541 
	C686.907532,437.058167 695.915405,437.130951 704.923279,437.203735 
z"/>
<path fill="#FEFBFB" opacity="1.000000" stroke="none" 
	d="
M326.144501,437.076416 
	C326.846924,437.067749 327.549377,437.059082 329.067017,437.020813 
	C360.766937,436.991180 391.651611,436.991180 422.533752,436.991180 
	C422.533752,445.487122 422.533752,453.383820 422.533752,461.847321 
	C400.260712,461.847321 378.256836,461.847321 356.285370,461.847321 
	C356.285370,471.972229 356.285370,481.522247 356.285370,491.418091 
	C375.695068,491.418091 394.757996,491.418091 414.058868,491.418091 
	C414.058868,498.898041 414.113007,506.027649 414.010315,513.155029 
	C413.991241,514.479187 413.340851,515.794189 412.518341,517.049316 
	C394.673004,516.975220 377.291138,516.943481 359.909515,517.001160 
	C358.662292,517.005249 357.417236,517.663696 356.171173,518.017883 
	C356.171173,527.807434 356.171173,537.597046 356.171173,548.117188 
	C378.208191,548.117188 400.326080,548.117188 422.727661,548.117188 
	C422.727661,556.768372 422.727661,564.694031 421.907471,572.809937 
	C389.733459,573.055359 358.379669,573.110474 326.656738,572.919800 
	C326.197449,561.044861 326.057800,549.415710 326.026550,537.786316 
	C325.937256,504.535370 325.891998,471.284302 325.921539,437.798492 
	C326.057312,437.401245 326.100922,437.238831 326.144501,437.076416 
z"/>
<path fill="#FEFCFC" opacity="1.000000" stroke="none" 
	d="
M558.191650,550.827271 
	C560.469604,552.158203 562.432373,553.312256 564.826782,554.720093 
	C554.467285,564.884705 542.649719,571.721680 528.795837,574.367004 
	C503.045135,579.283997 478.536194,576.344849 459.043823,557.328186 
	C437.949860,536.749023 433.051483,511.199005 441.797211,483.385284 
	C451.895233,451.270874 480.055756,435.174286 513.583252,436.446320 
	C531.323914,437.119446 547.186096,442.393860 560.879700,453.824188 
	C562.009644,454.767395 563.108276,455.748138 564.831970,457.239716 
	C560.932068,459.813141 557.358826,462.059357 553.906677,464.478394 
	C549.967957,467.238403 546.267212,472.159271 542.221802,472.421631 
	C538.358154,472.672241 534.345703,467.808655 530.120911,465.768097 
	C502.282379,452.322021 473.094299,468.468048 469.913147,500.348083 
	C468.753174,511.972504 469.555237,523.351929 476.570465,533.296143 
	C490.543457,553.103088 518.468201,557.581238 538.043396,543.307068 
	C539.502197,542.243286 541.006409,541.241760 542.051880,540.515320 
	C547.537231,544.028503 552.706848,547.339417 558.191650,550.827271 
z"/>
<path fill="#FEFCFC" opacity="1.000000" stroke="none" 
	d="
M311.126556,461.042297 
	C311.126556,461.042297 310.920044,461.339233 310.472076,461.558746 
	C295.462280,461.778259 280.900482,461.778259 266.185333,461.778259 
	C266.185333,498.273895 266.185333,534.130798 266.107117,570.342163 
	C265.989746,571.423340 265.950623,572.150085 265.911499,572.876770 
	C265.911499,572.876770 265.473175,572.968811 264.794586,572.972656 
	C254.756500,572.963135 245.397018,572.949707 235.986816,572.473999 
	C235.936127,535.412109 235.936127,498.812500 235.936127,461.440796 
	C222.252914,461.440796 209.043152,461.440796 195.712967,461.440796 
	C195.712967,453.860077 195.653549,447.051056 195.770859,440.245117 
	C195.790634,439.097443 196.573059,437.962891 197.467896,436.897614 
	C212.208542,436.986572 226.484482,436.976746 240.760254,437.019196 
	C264.156494,437.088745 287.552643,437.192230 310.935120,437.473358 
	C310.921387,437.665314 311.082825,438.014709 311.082825,438.014709 
	C311.014465,445.043274 310.946075,452.071808 310.938477,459.815674 
	C311.041718,460.701447 311.084137,460.871887 311.126556,461.042297 
z"/>
<path fill="#FEFBFB" opacity="1.000000" stroke="none" 
	d="
M833.018066,471.678986 
	C833.018066,471.678986 832.905762,471.748383 832.913940,472.293274 
	C832.903992,506.241608 832.885864,539.645081 832.867676,573.048523 
	C832.867676,573.048523 833.022278,573.046936 832.558105,572.977905 
	C822.053406,572.924194 812.012817,572.939392 801.972229,572.954651 
	C801.972229,572.954651 801.768799,572.514465 801.786621,571.830688 
	C801.804443,537.865417 801.804443,504.583984 801.804443,471.678986 
	C812.767151,471.678986 822.892578,471.678986 833.018066,471.678986 
z"/>
<path fill="#FEFBFB" opacity="1.000000" stroke="none" 
	d="
M814.384399,429.072205 
	C820.434875,428.485901 825.333740,430.240692 829.486206,433.945312 
	C838.030945,441.568359 835.961914,454.798950 825.463013,460.106018 
	C818.261475,463.746368 808.683533,462.362976 803.298340,456.904694 
	C798.458374,451.999023 797.533813,444.084534 801.074158,437.559967 
	C803.849243,432.445679 808.643616,430.371338 814.384399,429.072205 
z"/>
<path fill="#D34F4E" opacity="1.000000" stroke="none" 
	d="
M311.292175,437.813354 
	C311.082825,438.014709 310.921387,437.665314 310.622131,437.198792 
	C308.711456,436.484985 307.100281,436.024078 305.488525,436.022003 
	C270.935028,435.977173 236.381500,435.972443 201.828033,436.016113 
	C200.219391,436.018158 198.611420,436.541656 197.003113,436.822296 
	C196.573059,437.962891 195.790634,439.097443 195.770859,440.245117 
	C195.653549,447.051056 195.712967,453.860077 195.712967,461.440796 
	C209.043152,461.440796 222.252914,461.440796 235.936127,461.440796 
	C235.936127,498.812500 235.936127,535.412109 235.794357,572.572021 
	C235.652588,573.132324 235.246613,573.281616 235.246613,573.281616 
	C234.832336,571.060486 234.063126,568.840271 234.057312,566.618103 
	C233.976379,535.647400 234.030899,504.676361 233.980972,473.705536 
	C233.963669,462.973969 235.179581,464.069092 224.463745,463.938873 
	C215.820435,463.833862 207.177231,463.390686 198.537552,463.472961 
	C194.807114,463.508484 193.955353,461.916748 194.025620,458.674744 
	C194.151886,452.849548 194.407928,446.994263 193.972122,441.199493 
	C193.570709,435.862061 195.828430,434.888519 200.628860,434.918091 
	C230.932556,435.105042 261.238007,435.009857 291.542877,435.010498 
	C297.204193,435.010620 302.868195,434.931305 308.524841,435.096954 
	C309.845276,435.135620 312.835358,434.072876 311.292175,437.813354 
z"/>
<path fill="#E23537" opacity="1.000000" stroke="none" 
	d="
M412.981842,517.113464 
	C413.340851,515.794189 413.991241,514.479187 414.010315,513.155029 
	C414.113007,506.027649 414.058868,498.898041 414.058868,491.418091 
	C394.757996,491.418091 375.695068,491.418091 356.285370,491.418091 
	C356.285370,481.522247 356.285370,471.972229 356.285370,461.847321 
	C378.256836,461.847321 400.260712,461.847321 422.533752,461.847321 
	C422.533752,453.383820 422.533752,445.487122 422.533752,436.991180 
	C391.651611,436.991180 360.766937,436.991180 329.408997,436.940277 
	C328.935760,436.889374 328.965027,436.423523 329.446350,436.200256 
	C361.239685,435.959961 392.551666,435.942963 423.863678,435.925964 
	C423.906830,443.244293 423.854370,450.565002 424.035187,457.879944 
	C424.119904,461.308594 423.234619,463.079651 419.331177,463.072144 
	C399.917175,463.034698 380.502716,463.254089 361.088562,463.236053 
	C358.236694,463.233398 357.067902,464.362610 357.051666,466.974701 
	C357.012360,473.295258 357.039459,479.616241 357.035126,485.937042 
	C357.032532,489.742706 359.596497,490.013947 362.490265,490.009430 
	C378.292786,489.984711 394.098083,490.164032 409.896332,489.902893 
	C414.751648,489.822632 416.356964,491.421753 416.082397,496.188873 
	C415.738617,502.157410 416.139679,508.166504 415.894012,514.144775 
	C415.838196,515.502502 414.445984,516.805359 413.350647,517.830322 
	C413.032379,517.527222 412.981842,517.113464 412.981842,517.113464 
z"/>
<path fill="#D34F4E" opacity="1.000000" stroke="none" 
	d="
M755.000000,504.026489 
	C762.313843,504.027069 769.131775,504.168365 775.939880,503.969879 
	C779.518555,503.865509 781.069397,504.955200 780.939819,508.760376 
	C780.719421,515.233948 780.790588,521.723938 780.956909,528.201416 
	C781.042114,531.521912 780.032959,532.984985 776.436768,532.950439 
	C761.813354,532.810242 747.187500,532.853638 732.563232,532.947205 
	C729.480774,532.966919 727.976196,532.067810 728.055786,528.700378 
	C728.216736,521.890442 728.198792,515.071655 728.050964,508.260986 
	C727.978760,504.932312 729.460144,503.934692 732.563293,503.986725 
	C739.873657,504.109344 747.187561,504.026062 755.000000,504.026489 
M772.354614,505.786804 
	C758.275024,505.786804 744.195496,505.786804 729.775330,505.786804 
	C729.775330,514.481628 729.775330,522.669006 729.775330,530.932495 
	C746.556091,530.932495 763.056396,530.932495 779.445801,530.932495 
	C779.445801,522.455811 779.445801,514.377686 779.445801,505.787842 
	C777.239502,505.787842 775.273804,505.787842 772.354614,505.786804 
z"/>
<path fill="#E3211F" opacity="1.000000" stroke="none" 
	d="
M584.286377,573.070251 
	C594.078308,572.823181 604.214417,572.823181 614.787476,572.823181 
	C614.787476,554.356262 614.787476,535.972839 614.787476,517.270264 
	C634.943848,517.270264 654.665649,517.270264 674.855713,517.270264 
	C674.855713,535.628296 674.855713,554.017273 674.855713,572.930298 
	C684.906677,572.930298 694.500244,572.930298 704.568726,572.910461 
	C700.971863,573.263489 696.906677,573.802856 692.826477,573.965332 
	C688.173767,574.150574 683.501160,573.846375 678.849487,574.043701 
	C675.131226,574.201477 673.913147,572.671326 673.945129,569.043823 
	C674.077026,554.065552 673.829834,539.082214 674.102844,524.107788 
	C674.191101,519.266846 672.630371,517.831116 667.848511,517.904968 
	C651.208557,518.162109 634.562317,518.013184 617.214355,518.360229 
	C616.342407,520.510437 616.032471,522.318970 616.029175,524.127991 
	C616.001099,539.411377 616.029114,554.694885 616.040283,569.978394 
	C615.121094,571.285828 614.212524,573.718506 613.281372,573.727173 
	C603.733215,573.816040 594.181396,573.511780 584.286377,573.070251 
z"/>
<path fill="#E3211F" opacity="1.000000" stroke="none" 
	d="
M832.727539,471.353333 
	C822.892578,471.678986 812.767151,471.678986 801.804443,471.678986 
	C801.804443,504.583984 801.804443,537.865417 801.683838,571.611084 
	C801.095093,571.249146 800.219666,570.424194 800.217346,569.596741 
	C800.127380,537.935669 800.119446,506.274445 800.092773,474.613190 
	C800.090820,472.325470 800.190491,470.084015 803.296875,470.093536 
	C812.588318,470.122040 821.879761,470.198364 831.170593,470.303558 
	C831.595398,470.308380 832.014954,470.775757 832.727539,471.353333 
z"/>
<path fill="#E3211F" opacity="1.000000" stroke="none" 
	d="
M676.975708,436.797729 
	C676.323242,438.196625 675.114563,439.591064 675.103333,440.995087 
	C674.971008,457.463043 675.018433,473.932404 675.018433,490.866852 
	C655.110962,490.866852 635.401672,490.866852 614.999207,490.866852 
	C614.999207,473.426208 614.999207,455.696411 615.205811,437.512207 
	C615.590820,437.065430 615.769165,437.072998 615.947388,437.080597 
	C615.968079,437.531433 615.988770,437.982300 616.029358,439.227417 
	C616.032837,454.959686 615.982422,469.897797 616.045959,484.835419 
	C616.053345,486.568848 616.692749,488.299561 617.039124,490.031555 
	C633.870789,490.031860 650.702515,490.048370 667.534180,490.023956 
	C673.681885,490.015015 673.968506,489.712860 673.980896,483.456757 
	C674.011719,467.958374 674.008728,452.459930 674.376160,436.508484 
	C675.453125,436.085175 676.173218,436.114929 676.912354,436.308105 
	C676.931335,436.471588 676.975708,436.797729 676.975708,436.797729 
z"/>
<path fill="#E23537" opacity="1.000000" stroke="none" 
	d="
M266.185303,569.987671 
	C266.185333,534.130798 266.185333,498.273895 266.185333,461.778259 
	C280.900482,461.778259 295.462280,461.778259 310.490112,461.738678 
	C309.087555,462.136383 307.222321,462.935059 305.349854,462.952301 
	C293.209259,463.064117 281.067047,463.005798 268.226349,463.347565 
	C267.340668,465.822205 266.993439,467.952332 266.991547,470.082794 
	C266.963837,501.275116 266.997772,532.467468 266.954956,563.659729 
	C266.952057,565.769409 266.453400,567.878357 266.185303,569.987671 
z"/>
<path fill="#D34F4E" opacity="1.000000" stroke="none" 
	d="
M325.833435,437.006592 
	C326.100922,437.238831 326.057312,437.401245 325.720825,438.156494 
	C325.276550,440.893585 324.994202,443.037750 324.993042,445.182068 
	C324.970032,487.775757 324.979523,530.369446 324.982391,572.963135 
	C324.657654,571.037659 324.052032,569.112488 324.049438,567.186584 
	C323.993408,525.282776 323.988678,483.378845 324.066803,441.475098 
	C324.069641,439.961426 325.015839,438.449524 325.833435,437.006592 
z"/>
<path fill="#E23537" opacity="1.000000" stroke="none" 
	d="
M325.200989,573.163940 
	C324.979523,530.369446 324.970032,487.775757 324.993042,445.182068 
	C324.994202,443.037750 325.276550,440.893585 325.628662,438.391296 
	C325.891998,471.284302 325.937256,504.535370 326.026550,537.786316 
	C326.057800,549.415710 326.197449,561.044861 326.667664,573.107910 
	C327.047760,573.541687 327.083252,573.916809 327.083252,573.916870 
	C326.528687,573.732788 325.974121,573.548767 325.200989,573.163940 
z"/>
<path fill="#E3211F" opacity="1.000000" stroke="none" 
	d="
M584.079834,437.289093 
	C584.348999,478.188324 584.336487,519.409546 584.311218,560.630798 
	C584.308838,564.452698 584.224792,568.274658 584.193848,572.576294 
	C583.811646,571.155823 583.070374,569.256287 583.067383,567.355530 
	C583.002075,525.887085 583.009399,484.418549 583.052856,442.950073 
	C583.054688,441.170166 583.536377,439.390747 584.079834,437.289093 
z"/>
<path fill="#E3211F" opacity="1.000000" stroke="none" 
	d="
M705.141235,572.697632 
	C704.912415,530.504639 704.916687,487.966461 704.927673,445.428314 
	C704.928223,443.268677 704.986694,441.109009 705.091797,438.486633 
	C705.440186,439.805695 705.952881,441.587280 705.954834,443.369415 
	C705.999817,484.734711 705.996460,526.100037 705.963501,567.465393 
	C705.962219,569.094543 705.580200,570.723389 705.141235,572.697632 
z"/>
<path fill="#D34F4E" opacity="1.000000" stroke="none" 
	d="
M266.107086,570.342163 
	C266.453400,567.878357 266.952057,565.769409 266.954956,563.659729 
	C266.997772,532.467468 266.963837,501.275116 266.991547,470.082794 
	C266.993439,467.952332 267.340668,465.822205 267.756836,463.348267 
	C267.989014,498.219635 268.010742,533.434692 267.929382,568.649475 
	C267.925903,570.159424 266.970856,571.667236 266.185303,573.026367 
	C265.950623,572.150085 265.989746,571.423340 266.107086,570.342163 
z"/>
<path fill="#E3211F" opacity="1.000000" stroke="none" 
	d="
M833.111328,572.706482 
	C832.885864,539.645081 832.903992,506.241608 832.943848,472.352112 
	C833.307495,473.458710 833.944641,475.050751 833.947510,476.644012 
	C834.002930,507.254822 833.991394,537.865784 833.953613,568.476624 
	C833.951965,569.772827 833.563293,571.068542 833.111328,572.706482 
z"/>
<path fill="#D34F4E" opacity="1.000000" stroke="none" 
	d="
M423.535767,435.700012 
	C392.551666,435.942963 361.239685,435.959961 329.457703,435.967133 
	C328.658569,435.912689 328.323914,435.890472 328.002747,435.812714 
	C327.869049,435.780365 327.764038,435.629669 327.645966,435.532776 
	C328.390686,435.359772 329.135284,435.035980 329.880127,435.035400 
	C360.178162,435.011536 390.476227,435.013245 420.774292,435.037445 
	C421.585571,435.038116 422.396637,435.322174 423.535767,435.700012 
z"/>
<path fill="#E3211F" opacity="1.000000" stroke="none" 
	d="
M327.543457,573.933594 
	C327.083252,573.916809 327.047760,573.541687 327.036804,573.353638 
	C358.379669,573.110474 389.733459,573.055359 421.555054,573.070923 
	C420.414948,573.424683 418.807312,573.952759 417.199036,573.954712 
	C387.467316,573.990723 357.735474,573.963928 327.543457,573.933594 
z"/>
<path fill="#E3211F" opacity="1.000000" stroke="none" 
	d="
M412.518341,517.049316 
	C412.981842,517.113464 413.032379,517.527222 413.051544,517.734253 
	C394.409180,517.959656 375.747620,517.978149 356.628632,518.007202 
	C357.417236,517.663696 358.662292,517.005249 359.909515,517.001160 
	C377.291138,516.943481 394.673004,516.975220 412.518341,517.049316 
z"/>
<path fill="#D34F4E" opacity="1.000000" stroke="none" 
	d="
M616.261108,569.633240 
	C616.029114,554.694885 616.001099,539.411377 616.029175,524.127991 
	C616.032471,522.318970 616.342407,520.510437 616.744385,518.366150 
	C616.980530,533.145508 617.000854,548.260498 616.962341,563.375305 
	C616.957336,565.346619 616.649475,567.317200 616.261108,569.633240 
z"/>
<path fill="#D34F4E" opacity="1.000000" stroke="none" 
	d="
M617.031738,489.559937 
	C616.692749,488.299561 616.053345,486.568848 616.045959,484.835419 
	C615.982422,469.897797 616.032837,454.959686 616.055603,439.565002 
	C616.370361,441.030304 616.935181,442.950836 616.946472,444.874603 
	C617.033020,459.612152 617.011902,474.350311 617.031738,489.559937 
z"/>
<path fill="#E23537" opacity="1.000000" stroke="none" 
	d="
M615.928589,436.785919 
	C615.769165,437.072998 615.590820,437.065430 615.144897,437.049744 
	C604.978271,437.069763 595.079285,437.097870 584.742126,437.230103 
	C584.251404,437.108124 584.198914,436.881989 584.551758,436.317810 
	C595.258484,435.954041 605.559753,435.928375 615.861084,435.902710 
	C615.877258,436.098877 615.893494,436.295044 615.928589,436.785919 
z"/>
<path fill="#D34F4E" opacity="1.000000" stroke="none" 
	d="
M615.530090,435.685150 
	C605.559753,435.928375 595.258484,435.954041 584.491455,435.974854 
	C587.949097,435.651276 591.870667,435.095612 595.796082,435.067535 
	C602.262451,435.021301 608.731323,435.316376 615.530090,435.685150 
z"/>
<path fill="#E3211F" opacity="1.000000" stroke="none" 
	d="
M802.047485,573.231323 
	C812.012817,572.939392 822.053406,572.924194 832.568970,572.901367 
	C830.477112,573.263489 827.910095,573.945374 825.343384,573.944397 
	C817.603088,573.941406 809.862915,573.672974 802.047485,573.231323 
z"/>
<path fill="#D34F4E" opacity="1.000000" stroke="none" 
	d="
M676.893372,436.144653 
	C676.173218,436.114929 675.453125,436.085175 674.373169,436.041565 
	C677.056946,435.688721 680.100159,435.070953 683.144165,435.066956 
	C690.189514,435.057739 697.235291,435.345551 704.159851,435.736145 
	C694.990356,436.021118 685.941833,436.082886 676.893372,436.144653 
z"/>
<path fill="#E3211F" opacity="1.000000" stroke="none" 
	d="
M235.588058,573.457764 
	C235.246613,573.281616 235.652588,573.132324 235.845062,573.034302 
	C245.397018,572.949707 254.756500,572.963135 264.586243,573.054810 
	C255.347519,573.300110 245.638504,573.467041 235.588058,573.457764 
z"/>
<path fill="#E23537" opacity="1.000000" stroke="none" 
	d="
M676.912354,436.308136 
	C685.941833,436.082886 694.990356,436.021118 704.504028,435.959900 
	C704.965454,436.167786 704.961670,436.375122 704.940552,436.893097 
	C695.915405,437.130951 686.907532,437.058167 677.437683,436.891541 
	C676.975708,436.797729 676.931335,436.471588 676.912354,436.308136 
z"/>
<path fill="#E23537" opacity="1.000000" stroke="none" 
	d="
M311.223450,460.925537 
	C311.084137,460.871887 311.041718,460.701447 311.052612,460.273071 
	C311.369049,460.233582 311.440521,460.498108 311.223450,460.925537 
z"/>
<path fill="#E23537" opacity="1.000000" stroke="none" 
	d="
M197.467896,436.897614 
	C198.611420,436.541656 200.219391,436.018158 201.828033,436.016113 
	C236.381500,435.972443 270.935028,435.977173 305.488525,436.022003 
	C307.100281,436.024078 308.711456,436.484985 310.635864,437.006836 
	C287.552643,437.192230 264.156494,437.088745 240.760254,437.019196 
	C226.484482,436.976746 212.208542,436.986572 197.467896,436.897614 
z"/>
<path fill="#FEFBFB" opacity="1.000000" stroke="none" 
	d="
M772.831421,505.787323 
	C775.273804,505.787842 777.239502,505.787842 779.445801,505.787842 
	C779.445801,514.377686 779.445801,522.455811 779.445801,530.932495 
	C763.056396,530.932495 746.556091,530.932495 729.775330,530.932495 
	C729.775330,522.669006 729.775330,514.481628 729.775330,505.786804 
	C744.195496,505.786804 758.275024,505.786804 772.831421,505.787323 
z"/>
</svg>