<svg width="2816" height="1536" viewBox="0 0 2816 1536" fill="none" xmlns="http://www.w3.org/2000/svg">
<path fill-rule="evenodd" clip-rule="evenodd" d="M1725.5 273.829C1718.35 277.563 1705.97 284.237 1698 288.659C1690.03 293.081 1676.53 300.422 1668 304.972C1659.47 309.523 1648.67 315.377 1644 317.982C1626.43 327.771 1594.68 345.179 1571 358.001C1557.53 365.299 1542.22 373.634 1537 376.525C1518.89 386.542 1444.42 427.371 1428.5 436.012C1419.7 440.788 1402.94 449.939 1391.25 456.348C1306.9 502.603 1287.05 513.459 1262.5 526.776C1249.85 533.637 1236.12 541.16 1232 543.492C1219.49 550.564 1111.3 609.745 1083 624.99C1068.43 632.843 1052 641.837 1046.5 644.978C1041 648.119 1027.05 655.75 1015.5 661.936C1003.95 668.122 986.489 677.755 976.698 683.342C958.897 693.5 958.897 693.5 1106.45 693.753C1248.98 693.998 1254 694.069 1254 695.847C1254 696.86 1252.63 704.396 1250.95 712.594C1249.27 720.792 1241.18 760.575 1232.97 801C1224.77 841.425 1215.31 887.775 1211.96 904C1200.55 959.265 1156.14 1177.92 1146.98 1224C1143.75 1240.22 1140 1258.9 1138.64 1265.5C1135.09 1282.79 1134.67 1285.67 1135.85 1284.5C1137 1283.36 1146.06 1268.35 1171.47 1225.5C1181.26 1209 1196.89 1182.67 1206.22 1167C1215.54 1151.32 1231.04 1125.22 1240.67 1109C1250.3 1092.77 1265.4 1067.35 1274.24 1052.5C1283.08 1037.65 1293.45 1020.1 1297.29 1013.5C1301.12 1006.9 1313.37 986.2 1324.52 967.5C1335.67 948.8 1356.15 914.375 1370.05 891C1383.94 867.625 1401.46 838.15 1408.98 825.5C1416.5 812.85 1430.55 789.225 1440.19 773C1464.17 732.672 1511.31 653.443 1527.96 625.5C1535.5 612.85 1551.93 585.175 1564.49 564C1577.04 542.825 1593.24 515.6 1600.49 503.5C1607.74 491.4 1618.98 472.5 1625.47 461.5C1631.97 450.5 1643.9 430.475 1651.99 417C1660.09 403.525 1669.55 387.55 1673.02 381.5C1676.49 375.45 1684.58 361.725 1690.99 351C1697.41 340.275 1706.71 324.525 1711.66 316C1716.61 307.475 1722.89 296.9 1725.62 292.5C1731.76 282.581 1740 268.279 1740 267.547C1740 266.419 1738.17 267.21 1725.5 273.829ZM1676.5 521.958C1665.66 524.82 1659.21 527.689 1650.32 533.595C1634.1 544.377 1621.74 561.025 1615.87 580C1613.89 586.387 1613.54 589.652 1613.54 602C1613.54 619.003 1614.83 624.956 1621.41 638.5C1626.87 649.737 1633.14 657.458 1643.83 666.106C1653.54 673.956 1663.42 679.112 1674.56 682.148C1685.18 685.042 1707.22 685.277 1717 682.601C1745.52 674.796 1768.18 652.513 1776.16 624.432C1778.02 617.891 1778.42 613.958 1778.45 602C1778.48 586.694 1777.66 582.286 1772.44 569.863C1762.37 545.895 1739.36 526.788 1714.14 521.442C1704.52 519.403 1685.17 519.668 1676.5 521.958ZM1556.43 684.25C1548.85 697.038 1537.16 716.725 1530.46 728C1523.77 739.275 1510.95 760.875 1501.98 776C1493.01 791.125 1480.86 811.6 1474.98 821.5C1469.1 831.4 1459.65 847.375 1453.99 857C1443.95 874.055 1433.89 891.034 1391.79 962C1357.62 1019.6 1329.7 1066.82 1322.01 1080C1318 1086.87 1312.23 1096.55 1309.19 1101.5C1297.11 1121.18 1285.15 1142 1285.93 1142C1286.84 1142 1309.75 1129.31 1335 1114.82C1344.08 1109.61 1358.7 1101.27 1367.5 1096.3C1457.64 1045.3 1564.77 984.199 1568.19 981.82C1569.67 980.792 1573.23 975.799 1576.1 970.725C1581.46 961.244 1599 931.312 1627.51 883C1686.12 783.646 1711 741.16 1711 740.427C1711 740.075 1707.06 740.093 1702.25 740.467C1685.46 741.77 1662.16 737.87 1645.63 730.991C1636.55 727.21 1620.05 717.473 1611.29 710.723C1596.51 699.343 1583.06 683.277 1574.48 666.752C1572.84 663.591 1571.21 661.004 1570.86 661.002C1570.52 661.001 1564.02 671.462 1556.43 684.25Z" fill="#FF7F50"/>
</svg>
