<svg width="100%" height="100%" viewBox="882 272 1055 953" fill="none" xmlns="http://www.w3.org/2000/svg">
<path fill-rule="evenodd" clip-rule="evenodd" d="M1615.47 295.575C1601.74 303.041 1581.05 314.348 1569.5 320.703C1557.95 327.058 1543.66 334.899 1537.75 338.129C1531.84 341.358 1522.16 346.649 1516.25 349.886C1510.34 353.123 1498.3 359.713 1489.5 364.53C1480.7 369.346 1468.32 376.223 1462 379.81C1455.68 383.398 1445.78 388.89 1440 392.015C1425.19 400.028 1381.51 424.05 1355.5 438.484C1305.02 466.501 1245.09 499.456 1204.5 521.526C1194.6 526.909 1180.43 534.691 1173 538.82C1165.57 542.948 1156.35 548.078 1152.5 550.22C1148.65 552.361 1145.07 554.538 1144.55 555.057C1143.96 555.648 1178.78 556 1237.8 556C1318.58 556 1332 556.203 1332 557.422C1332 559.02 1315.79 640.413 1307.98 678C1293.41 748.173 1263.04 898.601 1260.03 915.5C1258.86 922.1 1257.67 928.4 1257.4 929.5C1256.34 933.704 1261.29 926.373 1274.26 904.52C1281.45 892.409 1292.58 873.725 1299.01 863C1305.44 852.275 1314.88 836.3 1319.99 827.5C1329.21 811.639 1343.19 787.912 1368.31 745.5C1375.47 733.4 1385.6 716.3 1390.81 707.5C1396.02 698.7 1401.95 688.8 1403.98 685.5C1406.01 682.2 1412.76 670.725 1418.99 660C1425.22 649.275 1445.85 614.4 1464.83 582.5C1521.61 487.108 1529.15 474.432 1542.2 452.5C1549.07 440.95 1564.06 415.75 1575.51 396.5C1586.96 377.25 1598.8 357.225 1601.81 352C1604.83 346.775 1613.68 331.7 1621.48 318.5C1642.39 283.129 1643 282 1641.22 282C1640.8 282 1629.21 288.109 1615.47 295.575ZM1605 444.058C1595.43 445.705 1585.41 451.374 1577 459.901C1564.58 472.491 1560.42 483.101 1561.26 500C1561.84 511.61 1564.23 518.765 1570.42 527.445C1581.15 542.479 1595.68 550 1614 550C1628.87 550 1640.74 545.224 1651.03 535.097C1662.31 523.996 1667.54 510.972 1667.33 494.5C1667.04 472.47 1652.92 453.369 1631.45 445.984C1624.63 443.635 1612.56 442.756 1605 444.058ZM1532.19 536.25C1531.11 538.038 1522.15 553.225 1512.29 570C1502.42 586.775 1479.94 624.8 1462.32 654.5C1444.7 684.2 1425.57 716.6 1419.81 726.5C1414.05 736.4 1401.21 758.225 1391.28 775C1358.89 829.725 1353.28 839.496 1354.08 839.811C1355.21 840.258 1356.74 839.422 1408.5 809.96C1434.35 795.248 1473.27 773.112 1495 760.77L1534.5 738.331L1543.08 723.915C1563.11 690.283 1592.14 640.55 1605.78 616.5C1610.46 608.25 1616.47 597.675 1619.15 593L1624.01 584.5L1610.25 583.867C1594.45 583.14 1587.78 581.567 1576.44 575.896C1559.99 567.667 1545.52 553.763 1538.81 539.75C1537.04 536.038 1535.27 533 1534.88 533C1534.48 533 1533.28 534.462 1532.19 536.25ZM1888.95 983.303C1876.09 986.939 1868.98 996.197 1868.88 1009.43C1868.84 1014.71 1869.35 1016.87 1871.65 1021.1C1881.92 1039.97 1914.53 1039.06 1923.93 1019.64C1926.41 1014.51 1926.72 1004.65 1924.55 999.468C1919.29 986.875 1902.8 979.387 1888.95 983.303ZM1383.5 1004.46C1364.62 1007.9 1347.29 1014.89 1334.93 1024.05C1327.53 1029.54 1314.75 1042.6 1309.94 1049.59C1308.29 1051.99 1304.94 1058.12 1302.5 1063.23C1288.69 1092.13 1289.08 1127.08 1303.55 1154.94C1323.68 1193.71 1363.09 1214.92 1410.91 1212.71C1435.66 1211.56 1454.11 1205.6 1472.82 1192.7C1476.85 1189.92 1482.85 1184.69 1486.16 1181.08L1492.19 1174.51L1486.3 1169C1483.06 1165.98 1476.03 1159.5 1470.69 1154.61L1460.97 1145.72L1455.14 1151.28C1441.58 1164.22 1427.82 1170.02 1409 1170.74C1387.67 1171.55 1373.42 1166.44 1360.01 1153.15C1347.54 1140.79 1341.04 1124.97 1341.04 1107C1341.04 1089.14 1346.83 1075.08 1359.36 1062.55C1371.07 1050.83 1381.08 1046 1397.86 1043.96C1418.87 1041.41 1437.74 1047.75 1454.16 1062.88L1461.09 1069.27L1463.79 1066.88C1465.27 1065.57 1470.77 1060.4 1475.99 1055.38C1481.22 1050.37 1487.08 1044.88 1489 1043.19L1492.5 1040.12L1487 1034.48C1471.4 1018.5 1452.12 1008.65 1428.29 1004.49C1417.88 1002.68 1393.38 1002.66 1383.5 1004.46ZM892 1025V1045H927H962V1127.25V1209.5H985.5H1009V1127.25V1045H1044H1079V1025V1005H985.5H892V1025ZM1104.39 1006.58C1104.73 1007.45 1105 1053.58 1105 1109.08V1210H1188.5H1272V1190V1170H1212H1152V1147.5V1125H1203H1254V1105.51V1086.02L1203.25 1085.76L1152.5 1085.5L1152.23 1065.25L1151.96 1045H1208.98H1266V1025V1005H1184.89C1111.34 1005 1103.84 1005.15 1104.39 1006.58ZM1522 1106.96V1208.93L1545.58 1209.21C1558.56 1209.37 1569.36 1209.31 1569.58 1209.08C1569.81 1208.85 1570 1189.84 1570 1166.83V1125H1616.5H1663V1167.25V1209.5H1685.99H1708.98L1709.24 1107.25L1709.5 1005H1686.25H1663V1045V1085H1616.5H1570V1045V1005H1546H1522V1106.96ZM1874.24 1131.73L1874.5 1209.47L1897.75 1209.79L1921 1210.11V1132.06V1054H1897.49H1873.99L1874.24 1131.73ZM1743.23 1124.72L1743.5 1144.44L1791 1144.37L1838.5 1144.3L1838.77 1124.65L1839.04 1105H1791H1742.96L1743.23 1124.72Z" fill="#FFFFFF"/>
<path fill-rule="evenodd" clip-rule="evenodd" d="M1615.47 295.575C1601.74 303.041 1581.05 314.348 1569.5 320.703C1557.95 327.058 1543.66 334.899 1537.75 338.129C1531.84 341.358 1522.16 346.649 1516.25 349.886C1510.34 353.123 1498.3 359.713 1489.5 364.53C1480.7 369.346 1468.32 376.223 1462 379.81C1455.67 383.398 1445.77 388.89 1440 392.015C1425.19 400.028 1381.51 424.05 1355.5 438.484C1305.02 466.501 1245.09 499.456 1204.5 521.526C1194.6 526.909 1180.42 534.699 1173 538.837C1165.57 542.976 1156.69 547.885 1153.25 549.748C1149.81 551.61 1147 553.58 1147 554.126C1147 554.672 1146.58 554.859 1146.07 554.543C1145.56 554.226 1144.86 554.425 1144.51 554.984C1144.09 555.669 1174.48 556 1237.94 556C1318.6 556 1332 556.203 1332 557.422C1332 559.02 1315.79 640.413 1307.98 678C1293.41 748.173 1263.04 898.601 1260.03 915.5C1258.86 922.1 1257.67 928.4 1257.39 929.5C1256.34 933.704 1261.29 926.373 1274.26 904.52C1281.45 892.409 1292.58 873.725 1299.01 863C1305.44 852.275 1314.88 836.3 1319.99 827.5C1329.21 811.639 1343.19 787.912 1368.31 745.5C1375.47 733.4 1385.6 716.3 1390.81 707.5C1396.02 698.7 1401.95 688.8 1403.98 685.5C1406.01 682.2 1412.76 670.725 1418.99 660C1425.22 649.275 1445.85 614.4 1464.83 582.5C1521.61 487.108 1529.15 474.432 1542.2 452.5C1549.07 440.95 1564.06 415.75 1575.51 396.5C1586.96 377.25 1598.8 357.225 1601.81 352C1604.82 346.775 1613.67 331.7 1621.48 318.5C1642.39 283.129 1643 282 1641.22 282C1640.79 282 1629.21 288.109 1615.47 295.575ZM1605 444.058C1595.43 445.705 1585.41 451.374 1577 459.901C1564.58 472.491 1560.41 483.101 1561.26 500C1561.84 511.61 1564.23 518.765 1570.42 527.445C1581.15 542.479 1595.68 550 1614 550C1628.87 550 1640.74 545.224 1651.03 535.097C1662.31 523.996 1667.54 510.972 1667.33 494.5C1667.04 472.47 1652.92 453.369 1631.45 445.984C1624.63 443.635 1612.56 442.756 1605 444.058ZM1532.19 536.25C1531.11 538.038 1522.15 553.225 1512.29 570C1502.42 586.775 1479.94 624.8 1462.32 654.5C1444.7 684.2 1425.57 716.6 1419.81 726.5C1414.05 736.4 1401.21 758.225 1391.28 775C1358.88 829.725 1353.28 839.496 1354.08 839.811C1355.21 840.258 1356.74 839.422 1408.5 809.96C1434.35 795.248 1473.27 773.112 1495 760.77L1534.5 738.331L1543.08 723.915C1563.11 690.283 1592.14 640.55 1605.78 616.5C1610.46 608.25 1616.47 597.675 1619.15 593L1624 584.5L1610.25 583.867C1594.45 583.14 1587.78 581.567 1576.44 575.896C1559.99 567.667 1545.52 553.763 1538.81 539.75C1537.04 536.038 1535.27 533 1534.87 533C1534.48 533 1533.28 534.462 1532.19 536.25ZM1888.95 983.303C1876.09 986.939 1868.98 996.197 1868.88 1009.43C1868.84 1014.71 1869.35 1016.87 1871.65 1021.1C1881.92 1039.97 1914.53 1039.06 1923.93 1019.64C1926.41 1014.51 1926.72 1004.65 1924.55 999.468C1919.29 986.875 1902.8 979.387 1888.95 983.303ZM1522.48 1108C1522.48 1163.83 1522.6 1186.66 1522.75 1158.75C1522.9 1130.84 1522.9 1085.16 1522.75 1057.25C1522.6 1029.34 1522.48 1052.17 1522.48 1108ZM1569.45 1045.5C1569.45 1066.95 1569.59 1075.58 1569.75 1064.68C1569.91 1053.78 1569.91 1036.23 1569.75 1025.68C1569.59 1015.13 1569.45 1024.05 1569.45 1045.5ZM1874.24 1131.73L1874.5 1209.47L1897.75 1209.79L1921 1210.11V1132.06V1054H1897.49H1873.99L1874.24 1131.73ZM1253.41 1105.5C1253.41 1115.4 1253.56 1119.31 1253.75 1114.2C1253.93 1109.08 1253.93 1100.98 1253.74 1096.2C1253.56 1091.41 1253.41 1095.6 1253.41 1105.5ZM1292.33 1107.5C1292.33 1111.35 1292.51 1112.8 1292.73 1110.73C1292.95 1108.65 1292.94 1105.5 1292.72 1103.73C1292.5 1101.95 1292.32 1103.65 1292.33 1107.5ZM1743.23 1124.72L1743.5 1144.44L1791 1144.37L1838.5 1144.3L1838.77 1124.65L1839.04 1105H1791H1742.96L1743.23 1124.72ZM1569 1167.2C1568.72 1190.69 1568.84 1209.56 1569.26 1209.14C1569.68 1208.72 1569.9 1189.5 1569.76 1166.44L1569.5 1124.5L1569 1167.2ZM1146.82 1209.75C1170.1 1209.9 1207.9 1209.9 1230.82 1209.75C1253.75 1209.6 1234.7 1209.48 1188.5 1209.48C1142.3 1209.48 1123.55 1209.6 1146.82 1209.75Z" fill="#FF7F50"/>
</svg>
