<svg width="100%" height="100%" viewBox="445 402 1925 745" fill="none" xmlns="http://www.w3.org/2000/svg">
<path fill-rule="evenodd" clip-rule="evenodd" d="M1758.33 642.029C1783.61 644.425 1808.02 652.989 1825.85 665.707C1833.47 671.148 1846 682.76 1846 684.383C1846 685.01 1838.9 692.613 1830.23 701.278L1814.45 717.032L1808.98 711.93C1796.36 700.165 1778.49 690.695 1762.52 687.306C1753.47 685.384 1729.24 686.059 1720.5 688.477C1705.39 692.657 1688.54 703.554 1678.65 715.544C1672.41 723.111 1665.84 736.036 1662.81 746.715C1661.01 753.04 1660.6 757.032 1660.62 768C1660.65 784.501 1662.22 791.598 1669.02 805.817C1676.72 821.947 1689.92 834.452 1708.16 842.911C1721.58 849.132 1728.22 850.461 1745.5 850.383C1763.04 850.303 1771.44 848.501 1784.74 841.963C1793.71 837.556 1805.77 828.52 1810.51 822.66L1813.5 818.962L1829.75 833.622C1838.69 841.685 1846.01 849.006 1846.01 849.891C1846.02 850.776 1841.82 855.55 1836.69 860.5C1793.89 901.771 1716.17 906.526 1662.5 871.157C1653.6 865.287 1639.42 851.677 1632.11 841.978C1610.09 812.762 1603.26 769.528 1614.49 730.5C1617.61 719.647 1624.61 705.133 1630.78 696.694C1636.99 688.192 1652.24 672.697 1659.5 667.505C1674.4 656.852 1692.84 649.087 1713 644.982C1731.25 641.266 1742.54 640.531 1758.33 642.029ZM1351.6 666.992L1351.7 687.978L1310.6 688.239L1269.5 688.5L1269.25 789.75L1268.99 891H1243.5H1218V789.5V688H1176H1134V667.667C1134 656.483 1134.3 647.033 1134.67 646.667C1135.04 646.3 1183.97 646.001 1243.42 646.003L1351.5 646.006L1351.6 666.992ZM1575 666.993V687.986L1505.25 688.243L1435.5 688.5L1435.24 716.634L1434.97 744.768L1439.24 745.388C1441.58 745.729 1469.45 745.893 1501.17 745.754L1558.83 745.5L1559.19 766C1559.39 777.275 1559.39 786.725 1559.19 787C1559 787.275 1531.09 787.567 1497.17 787.65L1435.5 787.8V818.15V848.5L1508.25 848.757L1581 849.013V870.007V891H1482.5H1384V768.5V646H1479.5H1575V666.993ZM1935 694.5V743H1996.5H2058V694.5V646H2083.5H2109V768.5V891H2083.51H2058.02L2057.76 839.388L2057.5 787.776L1996.5 787.7L1935.5 787.623L1935.24 839.312L1934.99 891H1909.49H1884V768.5V646H1909.5H1935V694.5Z" fill="#FFFFFF"/>
<path fill-rule="evenodd" clip-rule="evenodd" d="M995.995 419.153C988.6 423.03 978.039 428.784 972.526 431.94C967.013 435.096 954.403 442.094 944.503 447.49C934.603 452.886 917.953 462.017 907.503 467.781C897.053 473.545 879.503 483.206 868.503 489.249C857.503 495.293 838.603 505.751 826.503 512.488C814.403 519.226 787.403 534.082 766.503 545.501C727.505 566.809 664.31 601.715 616.503 628.354C601.653 636.628 585.228 645.709 580.003 648.534C574.778 651.358 561.278 658.75 550.003 664.962C538.728 671.173 521.628 680.545 512.003 685.788C496.414 694.279 467.021 710.604 458.259 715.637C456.475 716.662 455.013 717.837 455.009 718.25C455.006 718.663 502.253 719 560.003 719C617.753 719 665.003 719.263 665.003 719.583C665.003 720.39 643.299 828.436 630.469 891.5C624.651 920.1 617.453 955.875 614.474 971C611.494 986.125 607.037 1008.4 604.569 1020.5C590.176 1091.05 581.822 1135.22 582.706 1136.1C583.62 1137.02 596.689 1115.86 619.215 1077C642.43 1036.95 651.364 1021.63 663.521 1001C681.212 970.987 711.55 919.547 735.623 878.75C746.413 860.462 758.4 840.1 762.259 833.5C776.846 808.552 789.458 787.174 795.002 778C798.159 772.775 805.136 760.85 810.505 751.5C815.874 742.15 822.61 730.675 825.473 726C828.335 721.325 836.664 707.15 843.98 694.5C851.297 681.85 860.972 665.425 865.481 658C869.991 650.575 879.216 635.05 885.983 623.5C892.75 611.95 906.718 588.325 917.024 571C927.33 553.675 937.911 535.675 940.537 531C943.163 526.325 949.659 515.3 954.973 506.5C960.287 497.7 968.623 483.525 973.498 475C978.373 466.475 984.319 456.438 986.71 452.696C992.606 443.472 1010.15 412.813 1009.76 412.42C1009.58 412.246 1003.39 415.276 995.995 419.153ZM962.975 594.877C944.993 600.632 928.994 615.639 922.823 632.539C921.241 636.871 920.534 641.505 920.235 649.5C919.498 669.18 923.914 680.914 937.062 694.213C949.496 706.791 965.395 712.905 982.524 711.696C1021.72 708.93 1047.27 670.156 1034.61 632.672C1028.16 613.591 1013.26 599.574 994.003 594.479C986.27 592.433 969.957 592.642 962.975 594.877ZM2314.7 625.971C2302.88 630.59 2295.76 640.668 2295.65 652.96C2295.36 684.619 2343.04 693.329 2356.36 664.051C2359.28 657.641 2359.16 648.183 2356.07 641.221C2353.2 634.731 2345.74 627.782 2339.32 625.592C2332.87 623.395 2320.82 623.58 2314.7 625.971ZM2109.49 773C2109.49 838.175 2109.61 864.838 2109.75 832.25C2109.9 799.663 2109.9 746.338 2109.75 713.75C2109.61 681.163 2109.49 707.825 2109.49 773ZM878.503 712.263C872.453 722.292 863.198 737.922 857.936 746.998C843.016 772.734 765.558 904.876 750.959 929.5C746.72 936.65 739.522 949.025 734.963 957C730.405 964.975 721.262 980.725 714.645 992C699.901 1017.12 689.031 1036.28 689.015 1037.16C689.001 1037.92 705.79 1028.95 723.503 1018.73C730.103 1014.93 743.828 1007.06 754.003 1001.25C764.178 995.443 783.528 984.38 797.003 976.667C810.478 968.954 836.353 954.165 854.503 943.803C873.335 933.052 888.576 923.699 890.003 922.019C891.378 920.399 896.276 912.42 900.887 904.287C905.498 896.154 917.011 876.225 926.471 860C935.931 843.775 946.631 825.325 950.248 819C953.865 812.675 961.046 800.3 966.206 791.5C977.009 773.075 989.003 751.68 989.003 750.832C989.003 750.513 982.59 750.021 974.753 749.739C953.401 748.97 942.067 745.402 924.456 733.906C912.129 725.859 901.833 714.191 892.992 698.25C891.695 695.913 890.38 694.007 890.069 694.015C889.758 694.023 884.553 702.235 878.503 712.263ZM2301.91 715.733C2301.79 725.742 2301.79 727.766 2301.91 816.25L2302 891H2327.51H2353.01L2352.76 799.75L2352.5 708.5L2327.25 708.233L2302 707.966L2301.91 715.733ZM1473.75 745.749C1489.29 745.904 1514.72 745.904 1530.25 745.749C1545.79 745.594 1533.08 745.468 1502 745.468C1470.93 745.468 1458.22 745.594 1473.75 745.749ZM2151.99 770.241C2151.99 770.384 2151.8 779.837 2151.58 791.25L2151.17 812H2204.93H2258.69L2258.54 791.25L2258.39 770.5L2205.19 770.241C2175.94 770.099 2152 770.099 2151.99 770.241ZM2049.74 787.718L2056.98 788.087L2057.26 839.794L2057.53 891.5L2057.52 839.5L2057.5 787.5L2050 787.424L2042.5 787.349L2049.74 787.718Z" fill="#FF7F50"/>
</svg>
